<?xml version="1.0" encoding="utf-8"?>
<!-- Generator: Adobe Illustrator 21.1.0, SVG Export Plug-In . SVG Version: 6.00 Build 0)  -->
<svg version="1.1" id="Слой_1" xmlns="http://www.w3.org/2000/svg" xmlns:xlink="http://www.w3.org/1999/xlink" x="0px" y="0px"
	 viewBox="0 0 192.5 48.9" style="enable-background:new 0 0 192.5 48.9;" xml:space="preserve">
<style type="text/css">
	.st0{fill:#004673;}
	.st1{fill:#FBBB2C;}
	.st2{fill:#FEFEFE;}
</style>
<g id="Слой_x0020_1">
	<rect x="0" y="0" class="st0" width="192.5" height="48.9"/>
	<path class="st1" d="M54.1,18.4c-0.2,0-0.5,0-0.7,0.1c-0.1,0-0.1,0.1-0.2,0.1l-6.1,2.5c-0.9,0.3-1.6,1.2-1.6,2.2
		c0,1.3,1,2.3,2.3,2.3c0.1,0,0.2,0,0.3,0c0.1,0,0.3,0,0.6,0c0,0,0.1-0.1,0.2-0.1l2.1-0.9c-1.3,4.4-3.4,8.7-6.3,12.2
		c-3.3,3.8-7.4,6.4-12.4,7.1c-4.7,0.3-8.9-0.8-12.6-3.9c-4.3-3.5-7.2-9.1-9.1-14.3c-0.4-1-1.3-1.5-2.2-1.5S7,24.9,6.1,24.9
		c-0.7,0-1.2-0.5-1.3-1.3c0-0.8,0.6-1.4,1.3-1.4c0.2,0,0.6,0.1,1,0.5c0.7,0.6,2,1.3,3.2,0.4c1.2-0.9,1.2-2.3,0.4-3.4
		c-0.5-0.8-1.2-1.4-2.1-1.8c-0.8-0.4-1.6-0.5-2.5-0.5c-3.4,0.1-6,3-6,6.4c0,1.6,0.6,3.2,1.8,4.3c1.2,1.1,2.7,1.7,4.3,1.7
		c0.3,0,0.7,0,1-0.1c2.2,5.3,5.3,10.6,9.7,14.2c4.5,3.7,9.8,5.2,15.6,4.8c0.1,0,0.1,0,0.1,0c6.2-0.8,11.5-4,15.5-8.8
		c3.9-4.5,8.3-13.1,8.3-19.2C56.4,19.4,55.4,18.4,54.1,18.4z"/>
	<path class="st2" d="M14,11.2c0,4.1,3.4,7.5,7.5,7.5c4.2,0,7.5-3.4,7.5-7.5V0L18.8,4.2C15.8,5.4,14,8,14,11.2z M26.5,3.6l0.1,7.6
		c0,2.8-2.3,5.1-5.1,5.1c-2.8,0-5.1-2.3-5.1-5.1c0-2.3,1.3-3.9,3.3-4.8L26.5,3.6z"/>
	<path class="st2" d="M30.6,11.2c0,4.1,3.4,7.5,7.5,7.5c4.2,0,7.5-3.3,7.5-7.5V0L35.4,4.2C32.4,5.4,30.6,8,30.6,11.2z M43.1,3.6v7.6
		h0.1c0,2.8-2.3,5.1-5.1,5.1S33,14,33,11.2c0-2.3,1.3-3.9,3.3-4.8L43.1,3.6z"/>
	<path class="st2" d="M122.2,40.2h-7.8c-0.7,0-1.3-0.6-1.3-1.3V20.7h-5.4h-0.1v20.2c0,2.5,2.1,4.6,4.6,4.6c0.1,0,0.1,0,0.2,0h11.5
		c-1.1-1.3-1.7-2.9-1.7-4.6V40.2z"/>
	<path class="st2" d="M129.9,38.8v-3.5h6.3v-4.6h-6.3v-4.1c0.1-0.6,0.6-1.1,1.2-1.1h7.6v-4.9h-8.9h-0.9c-0.1,0-0.1,0-0.2,0
		c-2.4,0-4.3,2-4.3,4.3v0.5v6.5v8.9c0,2.5,2.1,4.6,4.6,4.6c0.1,0,0.1,0,0.2,0h10.5v-5.3h-8.5C130.5,40.1,129.9,39.5,129.9,38.8z"/>
	<path class="st2" d="M153.3,40.7c-4.2,0-7.6-3.4-7.6-7.6c0-4.2,3.4-7.6,7.6-7.6c2,0,3.8,0.8,5,2.1l2.2-5.1
		c-2.1-1.4-4.6-2.2-7.3-2.2c-7.1,0-13,5.8-13,12.9c0,7.1,5.8,12.9,13,12.9c3.1,0,6-1.1,8.2-2.9c-1.1-1.4-2.1-3-2.7-4.8
		C157.4,39.8,155.4,40.7,153.3,40.7z"/>
	<path class="st2" d="M94.1,20.8c-0.9,0-1.7,0.5-2.1,1.3L81.6,45.5h5.7l6.9-15.7l6.8,15.7h5.7L96.3,22C95.8,21.2,95,20.7,94.1,20.8z
		"/>
	<path class="st2" d="M78.9,32.4h-4.5v3.9v0.3h2.9c-0.7,2.1-3.4,4.1-6.2,4c-4.3,0-7.7-3.4-7.7-7.6s3.5-7.6,7.7-7.6
		c2,0,3.8,0.6,5.2,1.8l2-4.6c-2.1-1.6-4.7-2.5-7.5-2.5c-0.3,0-0.5,0-0.8,0c-6.7,0.5-12,6.1-12,12.9c0,7.2,5.9,13,13.1,13
		c5.5,0,9.8-3.7,11.6-8.6C83.4,35.3,82.1,32.4,78.9,32.4z"/>
	<path class="st2" d="M173,20.2c-7,0-12.7,5.8-12.7,12.9c0,7.1,5.7,12.9,12.7,12.9s12.7-5.8,12.7-12.9C185.7,26,180,20.2,173,20.2z
		 M179.4,34c0,3.7-3,6.7-6.7,6.7c-3.7,0-6.7-3-6.7-6.7c0-2.9,1.6-5.1,4.4-6.3l9-3.7V34z"/>
	<path class="st2" d="M189,16.7c-0.9,0-1.8,0.3-2.4,1c-0.7,0.7-1,1.6-1,2.5c0,0.9,0.4,1.7,1,2.4c0.7,0.7,1.5,1,2.4,1
		c0.9,0,1.8-0.4,2.4-1c0.7-0.7,1-1.6,1-2.5c0-0.9-0.4-1.8-1-2.4C190.7,17,189.9,16.7,189,16.7z M191.1,22.2
		c-0.6,0.6-1.3,0.9-2.1,0.9c-0.8,0-1.5-0.3-2.1-0.9c-0.6-0.6-0.9-1.3-0.9-2.1c0-0.8,0.3-1.5,0.9-2.1c0.5-0.6,1.3-0.9,2.1-0.9
		c0.8,0,1.6,0.3,2.1,0.9c0.6,0.6,0.9,1.3,0.9,2.1C192,20.9,191.7,21.6,191.1,22.2z"/>
	<path class="st2" d="M190.7,19.2c0-0.7-0.5-1.1-1.6-1.1h-1.5V22h0.7v-1.7h0.7l0.8,1.7h0.8l-0.9-1.8
		C190.4,20.1,190.7,19.7,190.7,19.2z M189,19.8h-0.6v-1.2h0.6c0.6,0,1,0.2,1,0.6C190,19.7,189.7,19.8,189,19.8z"/>
</g>
</svg>
